<svg xmlns="http://www.w3.org/2000/svg" viewBox="0 0 26 64"><defs><style>.cls-1{fill:#ada4a4;}</style></defs><title>Asset 1</title><g id="Layer_2" data-name="Layer 2"><g id="Layer_1-2" data-name="Layer 1"><g id="surface1"><path class="cls-1" d="M12.86,0l-.14,0a1,1,0,0,0-.85,1V60.2l-10-12.14a1.15,1.15,0,0,0-.78-.32,1.09,1.09,0,0,0-1,.63,1,1,0,0,0,.25,1.09L12.18,63.32,13,64l.79-.68,11.84-14a.93.93,0,0,0,.38-1,1.05,1.05,0,0,0-.81-.75,1.17,1.17,0,0,0-1.1.35l-10,12.23V1a.92.92,0,0,0-.34-.76A1.18,1.18,0,0,0,12.86,0Z"/></g></g></g></svg>