<svg xmlns="http://www.w3.org/2000/svg" viewBox="0 0 336.46 69.98"><defs><style>.cls-1{fill:#24272b;}.cls-2{fill:#ada3a3;}</style></defs><title>bbuddha_logoType_2</title><g id="Layer_2" data-name="Layer 2"><g id="Proper_Punctuation" data-name="Proper Punctuation"><path class="cls-1" d="M17.45,15A13,13,0,0,1,20,16a9,9,0,0,1,2.21,1.64,7.92,7.92,0,0,1,1.55,2.24,6.5,6.5,0,0,1,.58,2.82,8.2,8.2,0,0,1-1,3.71,10.31,10.31,0,0,1-2.75,3.31,14.23,14.23,0,0,1-4.46,2.35A18.55,18.55,0,0,1,10.1,33L0,32.91.22.4,11.39.48a20.36,20.36,0,0,1,5.07.6,12,12,0,0,1,3.64,1.57,6.78,6.78,0,0,1,2.18,2.28A5.44,5.44,0,0,1,23,7.66a5.62,5.62,0,0,1-.46,2.22,7.89,7.89,0,0,1-1.21,1.94,12.46,12.46,0,0,1-1.77,1.71A21.8,21.8,0,0,1,17.45,15ZM6.71,28.58l4,0a8.48,8.48,0,0,0,3-.46,6.12,6.12,0,0,0,2.08-1.23A4.84,4.84,0,0,0,17,25.18a5.53,5.53,0,0,0,.4-2,4.56,4.56,0,0,0-.5-2.22,4.3,4.3,0,0,0-1.4-1.54,6.29,6.29,0,0,0-2.16-.89,12.86,12.86,0,0,0-2.75-.3l-3.82,0Zm6.94-14.51a6.72,6.72,0,0,0,2-2,5.19,5.19,0,0,0,.77-2.76A4.1,4.1,0,0,0,16,7.45a3.79,3.79,0,0,0-1.14-1.39A5.62,5.62,0,0,0,13,5.17a8.77,8.77,0,0,0-2.43-.33l-3.73,0L6.81,14Z"/><path class="cls-1" d="M28.25,32.88,28.47.37l6.68,0L35,28.56l12.6.09L46.74,33Z"/><path class="cls-1" d="M69.16,25l-12-.08-2.47,7.95-5.75,0L60.08.37l7.83.05L78.6,33l-7,0ZM68,20.84,64.63,9.46,63.51,4.68h-.44L61.88,9.44,58.36,20.77Z"/><path class="cls-1" d="M105.22,30a11.32,11.32,0,0,1-2.51,1.6,17.21,17.21,0,0,1-2.88,1.06,21.33,21.33,0,0,1-3,.58,22,22,0,0,1-2.76.17A16.6,16.6,0,0,1,88,32.22,14.26,14.26,0,0,1,83.07,29a14.9,14.9,0,0,1-3.23-5,17.12,17.12,0,0,1-1.14-6.52,18.28,18.28,0,0,1,.73-5.15,16.66,16.66,0,0,1,2-4.33,16.25,16.25,0,0,1,3-3.44A17.76,17.76,0,0,1,88.19,2,19.38,19.38,0,0,1,92.5.5,20.22,20.22,0,0,1,97.13,0q.75,0,1.73.08t2.08.21q1.11.14,2.28.38t2.33.58L104.5,6l-.45.2A18.21,18.21,0,0,0,100,4.78a17.35,17.35,0,0,0-3.35-.41,10.72,10.72,0,0,0-4.43.87,10.22,10.22,0,0,0-3.47,2.47,11.39,11.39,0,0,0-2.27,3.79,14,14,0,0,0-.83,4.8,14.65,14.65,0,0,0,.75,4.87,11.5,11.5,0,0,0,2.26,4,10.52,10.52,0,0,0,3.65,2.65,12.26,12.26,0,0,0,5,1,16.36,16.36,0,0,0,4-.47,17.3,17.3,0,0,0,4-1.56Z"/><path class="cls-1" d="M116.06,32.89l-6.68,0L109.6.33l6.68,0Zm14.16.1-12-16.5,12.78-16,6.57,0L124.64,15.2,138.4,33Z"/><path class="cls-1" d="M170.54,15a13,13,0,0,1,2.53,1,9,9,0,0,1,2.21,1.64,8,8,0,0,1,1.55,2.24,6.51,6.51,0,0,1,.58,2.82,8.2,8.2,0,0,1-1,3.71,10.29,10.29,0,0,1-2.75,3.31,14.21,14.21,0,0,1-4.46,2.35,18.56,18.56,0,0,1-6.06.87l-10.1-.07L153.3.4l11.16.08a20.34,20.34,0,0,1,5.07.6,12,12,0,0,1,3.64,1.57,6.78,6.78,0,0,1,2.18,2.28,5.44,5.44,0,0,1,.71,2.73,5.62,5.62,0,0,1-.46,2.22,7.87,7.87,0,0,1-1.21,1.94,12.46,12.46,0,0,1-1.77,1.71A21.81,21.81,0,0,1,170.54,15ZM159.79,28.58l4,0a8.49,8.49,0,0,0,3-.46,6.12,6.12,0,0,0,2.08-1.23,4.84,4.84,0,0,0,1.21-1.74,5.53,5.53,0,0,0,.4-2,4.56,4.56,0,0,0-.5-2.22,4.3,4.3,0,0,0-1.4-1.54,6.3,6.3,0,0,0-2.16-.89,12.86,12.86,0,0,0-2.75-.3l-3.82,0Zm6.94-14.51a6.73,6.73,0,0,0,2-2,5.18,5.18,0,0,0,.77-2.76,4.1,4.1,0,0,0-.39-1.82,3.79,3.79,0,0,0-1.14-1.39,5.63,5.63,0,0,0-1.83-.89,8.77,8.77,0,0,0-2.43-.33l-3.73,0L159.89,14Z"/><path class="cls-1" d="M188.32.21l-.14,20.53a9.74,9.74,0,0,0,.57,3.59,7.17,7.17,0,0,0,1.58,2.52,6.5,6.5,0,0,0,2.28,1.49,7.51,7.51,0,0,0,2.68.51,7.09,7.09,0,0,0,2.67-.48,6,6,0,0,0,2.17-1.46,7,7,0,0,0,1.47-2.44,10.14,10.14,0,0,0,.56-3.45L202.3.31l5.48,0-.14,20.15a14.21,14.21,0,0,1-.85,4.79,11.7,11.7,0,0,1-2.51,4.08,12,12,0,0,1-4.2,2.82,15.18,15.18,0,0,1-5.94,1,15.82,15.82,0,0,1-5.23-.86,10.88,10.88,0,0,1-4-2.45,10.64,10.64,0,0,1-2.54-4,15.1,15.1,0,0,1-.86-5.42L181.64.17Z"/><path class="cls-1" d="M212.53.38l12.14.08a23.33,23.33,0,0,1,7.55,1.17,15.61,15.61,0,0,1,5.47,3.17A12.89,12.89,0,0,1,241,9.61a16.16,16.16,0,0,1,1.08,6.11,19.82,19.82,0,0,1-.47,4.12,17.34,17.34,0,0,1-1.41,4,16.63,16.63,0,0,1-2.43,3.6,15,15,0,0,1-3.53,2.92,17.88,17.88,0,0,1-4.71,1.94,22.72,22.72,0,0,1-6,.68l-11.25-.1ZM219,28.57l5.41,0a11,11,0,0,0,4.73-.91,9.16,9.16,0,0,0,3.32-2.56,11.06,11.06,0,0,0,2-3.86,17.28,17.28,0,0,0,.68-4.8,15.33,15.33,0,0,0-.71-5,9.47,9.47,0,0,0-2.16-3.64,9.19,9.19,0,0,0-3.52-2.23A14.27,14.27,0,0,0,224,4.83l-4.79,0Z"/><path class="cls-1" d="M244.69.38l12.14.08a23.3,23.3,0,0,1,7.55,1.17,15.59,15.59,0,0,1,5.47,3.17,12.89,12.89,0,0,1,3.31,4.81,16.15,16.15,0,0,1,1.08,6.11,19.82,19.82,0,0,1-.47,4.12,17.34,17.34,0,0,1-1.41,4,16.63,16.63,0,0,1-2.43,3.6,15,15,0,0,1-3.53,2.92,17.89,17.89,0,0,1-4.71,1.94,22.72,22.72,0,0,1-6,.68l-11.25-.1Zm6.49,28.18,5.41,0a11,11,0,0,0,4.73-.91,9.16,9.16,0,0,0,3.32-2.56,11.06,11.06,0,0,0,2-3.86,17.28,17.28,0,0,0,.68-4.8,15.31,15.31,0,0,0-.71-5,9.47,9.47,0,0,0-2.16-3.64,9.19,9.19,0,0,0-3.52-2.23,14.27,14.27,0,0,0-4.78-.78l-4.79,0Z"/><path class="cls-1" d="M276.62,32.85,276.85.34l6.68,0-.09,13.47,14.8.1L298.33.49l6.68,0L304.79,33l-6.68,0,.1-14.67-14.8-.1-.1,14.67Z"/><path class="cls-1" d="M327,25l-12-.08-2.47,7.95-5.75,0L317.93.37l7.83.05L336.46,33l-7,0Zm-1.19-4.14L322.48,9.46l-1.12-4.78h-.44l-1.19,4.76-3.52,11.34Z"/><path class="cls-2" d="M23,66.88a10.49,10.49,0,0,1-2.4,1.56,15.22,15.22,0,0,1-2.62,1,16.38,16.38,0,0,1-2.52.46,20.47,20.47,0,0,1-2.13.11,13.76,13.76,0,0,1-5.29-1A12.69,12.69,0,0,1,3.81,66,13.14,13.14,0,0,1,1,61.58a15.61,15.61,0,0,1-1-5.8,16.35,16.35,0,0,1,.62-4.47,14.77,14.77,0,0,1,1.67-3.78,14.47,14.47,0,0,1,2.53-3A14.89,14.89,0,0,1,8,42.29a16.43,16.43,0,0,1,3.72-1.37,16.84,16.84,0,0,1,4-.45,26.54,26.54,0,0,1,7.33,1.19l-.69,3.41-.39.19a18.34,18.34,0,0,0-4-1.37,16.85,16.85,0,0,0-3.15-.38,10.23,10.23,0,0,0-4.34.88,10.44,10.44,0,0,0-3.43,2.47,11.58,11.58,0,0,0-2.26,3.66A12.41,12.41,0,0,0,4,55a13.7,13.7,0,0,0,.69,4.41,11.29,11.29,0,0,0,2.08,3.78,10.39,10.39,0,0,0,3.41,2.65,10.6,10.6,0,0,0,4.68,1,15.89,15.89,0,0,0,1.69-.09,13.91,13.91,0,0,0,2-.35,19.17,19.17,0,0,0,2.18-.69A15.23,15.23,0,0,0,23,64.59Z"/><path class="cls-2" d="M30.1,58.09,30,69.55l-3.85,0,.2-28.74,8.12.06a12.24,12.24,0,0,1,3.88.62,9.39,9.39,0,0,1,3,1.64,7.4,7.4,0,0,1,1.94,2.44,6.62,6.62,0,0,1,.67,3,6.8,6.8,0,0,1-.53,2.64,9.34,9.34,0,0,1-1.35,2.25,11.42,11.42,0,0,1-1.89,1.84,17.66,17.66,0,0,1-2.12,1.42l8.37,13-4.61,0-6.49-11.5Zm0-3,6.38,0A6.65,6.65,0,0,0,38,54a6.8,6.8,0,0,0,1.12-1.41A7.11,7.11,0,0,0,39.81,51a6.41,6.41,0,0,0,.26-1.76,5.53,5.53,0,0,0-.38-2.09,4.45,4.45,0,0,0-1.18-1.69,5.67,5.67,0,0,0-2-1.12,8.84,8.84,0,0,0-2.8-.42l-3.53,0Z"/><path class="cls-2" d="M48.57,69.53l.2-28.74,16.85.12-.61,3-12.42-.08L52.52,53l11.07.08-.61,3L52.5,56.08l-.07,10.44,13.32.09-.61,3Z"/><path class="cls-2" d="M86.21,61.79l-12.4-.08-2.74,7.79-3.63,0L78.33,40.8l4.08,0L92.93,69.64l-4,0Zm-1.06-3L81.42,47.53l-1.09-4h-.39l-1.15,4-3.92,11.2Z"/><path class="cls-2" d="M102.48,69.64l-3.85,0,.18-25.7-9.53-.07.61-3L112.6,41,112,44l-9.34-.06Z"/><path class="cls-2" d="M120,69.61l-3.85,0,.2-28.74,3.85,0Z"/><path class="cls-2" d="M146.13,40.95l3.92,0-11,28.67-4.24,0L124.26,40.8l4.24,0,7.34,22.06,1.11,4h.37l1.17-4Z"/><path class="cls-2" d="M153.16,69.53l.2-28.74,16.85.12-.61,3-12.42-.09L157.11,53l11.07.08-.61,3-10.48-.07L157,66.52l13.32.09-.61,3Z"/><path class="cls-2" d="M205.07,61.79l-12.4-.09-2.74,7.79-3.63,0L197.19,40.8l4.08,0,10.51,28.81-4,0Zm-1.06-3-3.73-11.25-1.09-4h-.39l-1.15,4-3.92,11.2Z"/><path class="cls-2" d="M235.08,68.18a26.12,26.12,0,0,1-5.15,1.43,26.75,26.75,0,0,1-4.36.37,17.14,17.14,0,0,1-6-1A13.08,13.08,0,0,1,215,66.09a12.47,12.47,0,0,1-2.92-4.45,15.5,15.5,0,0,1-1-5.8,16.57,16.57,0,0,1,.62-4.5,14.92,14.92,0,0,1,1.68-3.79,14,14,0,0,1,2.56-3,15.26,15.26,0,0,1,3.27-2.22A16.73,16.73,0,0,1,223,40.92a18,18,0,0,1,4.18-.45,26.51,26.51,0,0,1,3.31.27,25.66,25.66,0,0,1,4.05.92L233.92,45l-.39.19a17.52,17.52,0,0,0-7.15-1.72,11.16,11.16,0,0,0-4.58.88,10.68,10.68,0,0,0-3.55,2.47,11.17,11.17,0,0,0-2.3,3.69,12.77,12.77,0,0,0-.84,4.54,13.28,13.28,0,0,0,.72,4.43A11.44,11.44,0,0,0,218,63.29a10.51,10.51,0,0,0,3.48,2.64,11,11,0,0,0,4.76,1,16.64,16.64,0,0,0,2.56-.2,20.5,20.5,0,0,0,2.86-.65l.07-9.93,3.45,0Z"/><path class="cls-2" d="M239.41,69.53l.2-28.74,16.85.12-.61,3-12.42-.09L243.36,53l11.07.08-.61,3-10.48-.07-.07,10.44,13.32.09-.61,3Z"/><path class="cls-2" d="M260,69.51l.2-28.74,5.59,0,13.42,19.71,1.94,3.54h.39l-.25-4,.13-19.15,3.51,0-.2,28.74-3.26,0L265.56,46.39,263.82,43h-.39l.25,4-.15,22.56Z"/><path class="cls-2" d="M310.82,66.88a10.47,10.47,0,0,1-2.4,1.56,15.27,15.27,0,0,1-2.62,1,16.38,16.38,0,0,1-2.52.46,20.75,20.75,0,0,1-2.13.11,13.78,13.78,0,0,1-5.29-1A12.69,12.69,0,0,1,291.61,66a13.14,13.14,0,0,1-2.82-4.46,15.61,15.61,0,0,1-1-5.8,16.34,16.34,0,0,1,.62-4.47,14.77,14.77,0,0,1,1.67-3.78,14.47,14.47,0,0,1,2.53-3,14.89,14.89,0,0,1,3.21-2.22,16.38,16.38,0,0,1,3.72-1.37,16.83,16.83,0,0,1,4-.45,26.57,26.57,0,0,1,7.33,1.19l-.69,3.41-.39.19a18.34,18.34,0,0,0-4-1.37,16.81,16.81,0,0,0-3.15-.38,10.23,10.23,0,0,0-4.34.88,10.44,10.44,0,0,0-3.43,2.47,11.58,11.58,0,0,0-2.26,3.66,12.4,12.4,0,0,0-.83,4.47,13.7,13.7,0,0,0,.69,4.41,11.29,11.29,0,0,0,2.08,3.78A10.39,10.39,0,0,0,298,65.82a10.61,10.61,0,0,0,4.68,1,15.9,15.9,0,0,0,1.69-.09,13.91,13.91,0,0,0,2-.35,19,19,0,0,0,2.18-.69,15.23,15.23,0,0,0,2.32-1.13Z"/><path class="cls-2" d="M325.51,57l-.09,12.6-3.85,0,.09-12.56-9.4-16.25,4.39,0,5.44,10.4,1.72,3.86h.39l1.89-3.79,5.7-10.36,3.85,0Z"/></g></g></svg>